<svg width="16" height="15" viewBox="0 0 16 15" fill="none" xmlns="http://www.w3.org/2000/svg">
<path d="M11.4198 8.41V10.36C11.4198 12.96 10.3084 14 7.52977 14H4.89008C2.11145 14 1 12.96 1 10.36V7.89C1 5.29 2.11145 4.25 4.89008 4.25H6.97405" stroke="#60B257" stroke-width="0.5" stroke-linecap="round" stroke-linejoin="round"/>
<path d="M7.66881 1H10.4474M4.47339 2.95C4.47339 1.871 5.40423 1 6.55736 1H8.37736M14.8932 4.9V8.9235C14.8932 9.931 14.018 10.75 12.9413 10.75M11.42 8.41H9.19705C7.52988 8.41 6.97415 7.89 6.97415 6.33V4.25L11.42 8.41ZM14.8932 4.9H12.8093C11.2463 4.9 10.7253 4.4125 10.7253 2.95V1L14.8932 4.9Z" stroke="#60B257" stroke-width="0.5" stroke-linecap="round" stroke-linejoin="round"/>
</svg>
