<svg width="25" height="24" viewBox="0 0 25 24" fill="none" xmlns="http://www.w3.org/2000/svg">
<path d="M19.4577 23.7441L19.4577 23.7438L19.4451 23.7438C19.2854 23.7445 19.1278 23.7066 18.9854 23.6332C18.9852 23.6331 18.9849 23.6329 18.9846 23.6328L12.5979 20.2628L12.4812 20.2012L12.3645 20.2628L5.97589 23.6338L5.97549 23.634C5.80958 23.722 5.62267 23.7611 5.43598 23.7473C5.24928 23.7334 5.07001 23.667 4.91856 23.5554C4.76709 23.4438 4.64948 23.2914 4.57934 23.1154C4.5092 22.9394 4.48944 22.7469 4.52238 22.56L4.27618 22.5166L4.52238 22.56L5.77506 15.4518L5.79794 15.3219L5.7037 15.2297L0.543978 10.1808C0.415552 10.0512 0.324244 9.88868 0.280049 9.71051L0.0374018 9.77069L0.280049 9.71051C0.235908 9.53255 0.240478 9.34586 0.293232 9.17036C0.351709 8.99103 0.458606 8.83197 0.601649 8.71093C0.74526 8.58942 0.91958 8.51108 1.10477 8.48455L1.10562 8.48442L8.24588 7.4365L8.37673 7.41729L8.43448 7.29833L11.5787 0.821401L11.5791 0.820502C11.6615 0.649148 11.7899 0.504921 11.9494 0.40413C12.109 0.30335 12.2933 0.25 12.4812 0.25C12.6692 0.25 12.8534 0.30335 13.013 0.40413L13.1462 0.193207L13.013 0.40413C13.1725 0.504921 13.3009 0.649148 13.3833 0.820501L13.3833 0.820506L13.3843 0.822626L16.5661 7.28693L16.6241 7.4048L16.7541 7.42387L23.8944 8.4718L23.8952 8.47192C24.0804 8.49845 24.2547 8.57679 24.3984 8.69831C24.5414 8.81933 24.6483 8.97838 24.7068 9.15769C24.7595 9.3332 24.7641 9.51991 24.72 9.69788C24.6758 9.87605 24.5845 10.0385 24.456 10.1681C24.4557 10.1685 24.4553 10.1689 24.4549 10.1693L19.2963 15.2171L19.2021 15.3093L19.2249 15.4392L20.4776 22.5474L20.4776 22.5474L20.4782 22.5504C20.5141 22.7406 20.4953 22.9372 20.424 23.1168C20.3528 23.2961 20.2325 23.4508 20.0775 23.5631C19.8962 23.6908 19.6783 23.7543 19.4577 23.7441Z" stroke="#878787" stroke-width="0.5"/>
</svg>
