<svg width="25" height="24" viewBox="0 0 25 24" fill="current" xmlns="http://www.w3.org/2000/svg">
<path d="M19.4461 23.9938C19.2458 23.9946 19.0482 23.947 18.8699 23.8549L12.4812 20.4839L6.09256 23.8549C5.88511 23.9649 5.65121 24.014 5.41746 23.9966C5.18371 23.9792 4.95948 23.8961 4.77027 23.7567C4.58105 23.6173 4.43444 23.4272 4.3471 23.2079C4.25975 22.9887 4.23518 22.7492 4.27618 22.5166L5.52885 15.4084L0.367823 10.3582C0.206801 10.1962 0.0925745 9.99313 0.0374018 9.77069C-0.0177709 9.54826 -0.0118068 9.31489 0.054654 9.09561C0.127259 8.87122 0.260815 8.67184 0.440166 8.52008C0.619516 8.36833 0.83748 8.27029 1.06932 8.23707L8.20958 7.18915L11.3538 0.712222C11.4564 0.49876 11.6165 0.318736 11.8159 0.192772C12.0153 0.0668085 12.2459 0 12.4812 0C12.7165 0 12.9471 0.0668085 13.1465 0.192772C13.3459 0.318736 13.506 0.49876 13.6086 0.712222L16.7904 7.17652L23.9307 8.22445C24.1625 8.25766 24.3805 8.35571 24.5598 8.50746C24.7392 8.65921 24.8727 8.8586 24.9453 9.08299C25.0118 9.30226 25.0178 9.53564 24.9626 9.75807C24.9074 9.9805 24.7932 10.1836 24.6322 10.3455L19.4711 15.3958L20.7238 22.504C20.7685 22.7407 20.7451 22.9853 20.6563 23.2091C20.5676 23.4328 20.4171 23.6262 20.2228 23.7665C19.9959 23.9268 19.7228 24.0067 19.4461 23.9938Z" fill="#FFE604"/>
</svg>
