<svg width="20" height="24" viewBox="0 0 20 24" fill="none" xmlns="http://www.w3.org/2000/svg">
<path d="M10.0649 0.344116C7.5942 0.343993 5.22332 1.31901 3.46752 3.05724C1.71173 4.79548 0.712939 7.15645 0.688232 9.627C0.688232 16.05 8.95141 23.1997 9.30303 23.5045C9.51534 23.686 9.78552 23.7858 10.0649 23.7858C10.3443 23.7858 10.6144 23.686 10.8267 23.5045C11.237 23.1997 19.4415 16.05 19.4415 9.627C19.4168 7.15645 18.418 4.79548 16.6622 3.05724C14.9065 1.31901 12.5356 0.343993 10.0649 0.344116ZM10.0649 13.237C9.25353 13.237 8.4604 12.9964 7.78578 12.5457C7.11116 12.0949 6.58536 11.4542 6.27487 10.7046C5.96438 9.95501 5.88314 9.13018 6.04142 8.33441C6.19971 7.53865 6.59042 6.80769 7.16413 6.23398C7.73785 5.66026 8.4688 5.26956 9.26457 5.11127C10.0603 4.95298 10.8852 5.03422 11.6348 5.34471C12.3844 5.6552 13.025 6.181 13.4758 6.85562C13.9266 7.53024 14.1672 8.32337 14.1672 9.13473C14.1672 10.2227 13.735 11.2662 12.9656 12.0355C12.1963 12.8048 11.1529 13.237 10.0649 13.237Z" fill="#B5002D"/>
</svg>
