<svg width="20" height="18" viewBox="0 0 20 18" fill="none" xmlns="http://www.w3.org/2000/svg">
<path d="M16.8425 12.0008C15.3658 12.002 13.7564 12.4899 12.3965 11.9143L6.63063 9.47369C6.44086 9.39336 6.31757 9.20729 6.31757 9.00122C6.31757 8.80117 6.43715 8.6205 6.62129 8.54233L12.6579 5.97985C13.8588 5.47007 15.2609 5.87663 16.5609 5.98724C17.2872 6.04903 18.0137 5.87008 18.6169 5.48076C19.2201 5.09144 19.6629 4.51576 19.87 3.8515C20.0771 3.18724 20.0358 2.47535 19.7531 1.83674C19.4704 1.19813 18.9637 0.672173 18.3191 0.348198C17.6745 0.0242235 16.9317 -0.0777936 16.2169 0.0594737C15.5021 0.196741 14.8594 0.564829 14.3978 1.10122C13.9363 1.63761 13.6844 2.30924 13.685 3.00203C13.685 3.2081 13.5617 3.39417 13.372 3.4745L7.05722 6.14746C6.0312 6.58177 4.84899 6.25539 3.75292 6.05544C3.14197 5.94399 2.50998 6.00648 1.93628 6.23506C1.36258 6.46364 0.872742 6.84812 0.528259 7.34025C0.183777 7.83238 0 8.41021 0 9.00122C0 9.59222 0.183777 10.1701 0.528259 10.6622C0.872742 11.1543 1.36258 11.5388 1.93628 11.7674C2.50998 11.996 3.14197 12.0584 3.75292 11.947C4.84879 11.7471 6.0311 11.4214 7.0565 11.8567L13.3813 14.5415C13.5654 14.6197 13.685 14.8004 13.685 15.0004C13.685 15.5937 13.8702 16.1736 14.2172 16.6669C14.5641 17.1602 15.0572 17.5446 15.6342 17.7717C16.2112 17.9987 16.846 18.0581 17.4585 17.9424C18.071 17.8266 18.6336 17.5409 19.0752 17.1214C19.5168 16.7019 19.8175 16.1675 19.9393 15.5856C20.0612 15.0037 19.9986 14.4006 19.7596 13.8525C19.5207 13.3044 19.116 12.8359 18.5967 12.5063C18.0775 12.1767 17.467 12.0008 16.8425 12.0008Z" fill="#60B257"/>
</svg>
