<svg width="41" height="44" viewBox="0 0 41 44" fill="none" xmlns="http://www.w3.org/2000/svg">
<path fill-rule="evenodd" clip-rule="evenodd" d="M20.3361 7.02512C11.1469 7.02512 3.69748 14.4745 3.69748 23.6638C3.69748 32.853 11.1469 40.3024 20.3361 40.3024C29.5254 40.3024 36.9748 32.853 36.9748 23.6638C36.9748 14.4745 29.5254 7.02512 20.3361 7.02512ZM0 23.6638C0 12.4324 9.1048 3.32764 20.3361 3.32764C31.5675 3.32764 40.6723 12.4324 40.6723 23.6638C40.6723 34.8951 31.5675 43.9999 20.3361 43.9999C9.1048 43.9999 0 34.8951 0 23.6638Z" fill="#1F7158"/>
<path d="M25.8844 3.18913C25.7875 2.19421 25.4643 1.2077 24.904 0.377285C24.7613 0.165226 24.606 0.00830326 24.3356 0.0219632C24.0863 0.0356683 23.8209 0.131194 23.5874 0.214331C23.154 0.370001 22.7417 0.580879 22.3594 0.834527C21.5185 1.39327 20.8134 2.12668 20.1719 2.90472C19.613 2.22377 19.0081 1.58188 18.3057 1.04833C17.928 0.762814 17.522 0.516385 17.0875 0.328618C16.8756 0.237414 16.6601 0.15688 16.4393 0.0941292C16.1955 0.025991 15.9058 -0.0689368 15.6774 0.0925076C15.4916 0.223792 15.369 0.474434 15.2555 0.668153C15.126 0.890309 15.0141 1.11962 14.9146 1.35786C14.721 1.8201 14.5821 2.3056 14.5068 2.80191C14.4279 3.31066 14.4074 3.82666 14.4593 4.33925C14.5026 4.76108 14.5209 5.32698 14.9375 5.55564C15.1741 5.68604 15.4745 5.73473 15.7342 5.79756C16.001 5.86219 16.2696 5.91259 16.5435 5.9452C16.6831 5.96151 16.8245 5.96893 16.9624 5.96922C16.6738 6.19104 16.3869 6.4182 16.1107 6.65428C15.5723 7.11935 15.9845 7.82312 16.3671 8.24566C16.5594 8.45783 16.8116 8.68969 17.105 8.72413C17.4355 8.7622 17.6463 8.53132 17.8501 8.30576C18.2434 7.86529 18.6386 7.42661 19.0319 6.98614C19.4111 6.56344 19.7885 6.14073 20.1677 5.71803C20.8907 6.53278 21.6137 7.34575 22.3349 8.16049C22.513 8.36017 22.6892 8.62213 22.9507 8.71166C23.2615 8.81908 23.5483 8.63641 23.775 8.43937C24.1664 8.09677 24.7353 7.36485 24.3652 6.83556C24.2648 6.69121 24.113 6.58946 23.9771 6.4824C23.8165 6.35572 23.6577 6.22904 23.4971 6.10236C23.4459 6.0631 23.3965 6.02207 23.3454 5.98281C23.9234 5.98938 24.5141 5.85184 25.0694 5.69999C25.2728 5.64348 25.4745 5.57629 25.6127 5.40753C25.7634 5.22101 25.7957 4.96306 25.8316 4.73181C25.9122 4.22306 25.9345 3.70706 25.8843 3.19447L25.8844 3.18913Z" fill="#B5002D"/>
<circle cx="26.6218" cy="6.28576" r="0.369748" fill="#FFD600"/>
<circle cx="32.1681" cy="9.6134" r="0.369748" fill="white"/>
<circle cx="36.605" cy="14.7899" r="0.369748" fill="#FFD600"/>
<circle cx="38.4537" cy="20.3361" r="0.369748" fill="white"/>
<circle cx="35.8656" cy="33.6471" r="0.369748" fill="white"/>
<circle cx="26.2521" cy="40.6722" r="0.369748" fill="white"/>
<circle cx="38.084" cy="28.4706" r="0.369748" fill="#FFD600"/>
<circle cx="31.4286" cy="38.4537" r="0.369748" fill="#FFD600"/>
<circle cx="19.9664" cy="42.1512" r="0.369748" fill="#FFD600"/>
<circle r="0.369748" transform="matrix(-1 0 0 1 13.6807 6.65539)" fill="#FFD600"/>
<circle r="0.369748" transform="matrix(-1 0 0 1 8.1344 9.98327)" fill="white"/>
<circle r="0.369748" transform="matrix(-1 0 0 1 3.69751 15.1598)" fill="#FFD600"/>
<circle r="0.369748" transform="matrix(-1 0 0 1 1.84876 20.7059)" fill="white"/>
<circle r="0.369748" transform="matrix(-1 0 0 1 4.43701 34.0167)" fill="white"/>
<circle r="0.369748" transform="matrix(-1 0 0 1 14.0504 41.0421)" fill="white"/>
<circle r="0.369748" transform="matrix(-1 0 0 1 2.21851 28.8402)" fill="#FFD600"/>
<circle r="0.369748" transform="matrix(-1 0 0 1 8.87403 38.8236)" fill="#FFD600"/>
</svg>
