<svg width="186" height="66" viewBox="0 0 530 189" fill="none" xmlns="http://www.w3.org/2000/svg">
<path d="M115.938 81.4362C115.518 77.7817 115.323 74.115 114.848 70.4666C114.019 64.126 112.837 57.9255 111.162 51.7494C110.352 48.7466 109.463 45.7682 108.549 42.7959C107.72 40.1098 105.96 37.6796 103.511 36.2421C102.25 35.4381 100.892 35.0057 99.4357 34.9387C97.9798 34.6098 96.5177 34.6768 95.0618 35.1336C92.4058 35.9924 89.8473 37.6369 88.5071 40.1707C87.1487 42.735 86.5274 45.7682 87.4046 48.6187C88.9336 53.5949 90.3895 58.6077 91.5408 63.6814C90.1945 63.9189 88.8544 64.1686 87.5203 64.4549C84.5902 65.0762 81.6662 65.6731 78.7056 66.1177C77.67 66.2395 76.6405 66.3553 75.6049 66.4649C74.0942 66.4101 72.687 66.7207 71.3773 67.409C70.0188 67.8536 68.8431 68.6089 67.8502 69.6748C66.778 70.6676 66.0226 71.8431 65.584 73.2014C64.8957 74.5109 64.585 75.9179 64.6398 77.4284C64.7677 80.2667 65.6998 83.2025 67.8502 85.1821C69.8665 87.0337 72.7601 88.6782 75.6049 88.3919C80.7463 87.8742 85.8816 87.192 90.9377 86.12C92.1378 85.8642 93.3318 85.6206 94.5319 85.3831C94.9583 88.4894 95.4212 91.5896 95.939 94.6838C96.0548 95.3903 96.1766 96.0969 96.2984 96.8034C96.6396 98.2287 97.2914 99.4712 98.26 100.531C99.0336 101.725 100.057 102.663 101.336 103.357C102.597 104.161 103.956 104.594 105.412 104.661C106.868 104.989 108.33 104.922 109.785 104.466C112.441 103.607 115 101.962 116.34 99.4285C116.706 98.5576 117.077 97.6805 117.443 96.8095C117.967 94.8665 117.967 92.9235 117.443 90.9805C116.882 87.8133 116.389 84.6278 115.944 81.4423L115.938 81.4362Z" fill="white"/>
<path d="M234.142 46.4991C234.879 47.0716 235.622 47.6442 236.359 48.2106C238.071 49.2034 239.917 49.7029 241.89 49.709C245.625 49.9526 249.371 50.0805 253.111 49.9587C255.128 49.8917 257.144 49.7821 259.154 49.7212C259.099 51.5606 259.063 53.4 259.045 55.2456C259.032 56.8779 259.026 58.5102 259.038 60.1487C259.063 62.9748 260.245 65.8984 262.249 67.9023C263.242 68.9743 264.417 69.7296 265.776 70.1681C267.086 70.8564 268.493 71.167 269.997 71.1122C272.836 70.9843 275.772 70.0524 277.752 67.9023C279.714 65.7705 280.987 63.1088 280.963 60.1487C280.926 56.0434 280.975 51.9382 281.133 47.8391C281.255 44.7571 281.608 41.7056 281.791 38.6358C282.047 34.354 281.974 30.0599 281.694 25.778C281.377 20.8871 280.798 16.0205 280.152 11.1661C280.207 9.65558 279.897 8.24859 279.208 6.94515C278.763 5.58689 278.008 4.41136 276.942 3.41855C275.949 2.34656 274.773 1.5913 273.415 1.15276C272.105 0.464492 270.698 0.153859 269.187 0.208676C266.349 0.336584 263.412 1.26848 261.433 3.41855C260.86 4.15554 260.287 4.89863 259.721 5.63562C258.728 7.34715 258.228 9.19267 258.222 11.1661C258.959 16.6783 259.605 22.2271 259.879 27.788C259.124 27.8002 258.375 27.8185 257.619 27.8489C254.786 27.9586 251.96 28.1169 249.121 28.0926C246.703 28.0682 244.29 27.9525 241.878 27.7941C240.367 27.7393 238.96 28.0499 237.65 28.7382C236.292 29.1828 235.116 29.9381 234.123 31.004C233.051 31.9968 232.296 33.1723 231.857 34.5306C231.169 35.8401 230.858 37.2471 230.913 38.7515C231.041 41.5899 231.973 44.5257 234.123 46.5052L234.142 46.4991Z" fill="white"/>
<path d="M526.72 60.8126C526.696 57.822 526.605 54.8314 526.489 51.8408C526.373 48.9598 525.344 46.1519 523.279 44.0871C522.286 43.0151 521.11 42.2599 519.752 41.8213C518.442 41.1331 517.035 40.8224 515.53 40.8772C512.691 41.0052 509.755 41.9371 507.775 44.0871C505.85 46.1824 504.449 48.9111 504.565 51.8408C504.888 60.0086 504.991 68.2191 504.035 76.3503C503.767 78.0131 503.438 79.6637 503.152 81.3265C502.701 83.9212 502.372 86.5403 502.037 89.1472C501.635 92.2962 501.3 95.4512 501.001 98.6124C500.934 99.3067 500.873 99.995 500.812 100.689C500.758 102.2 501.068 103.607 501.757 104.916C502.201 106.275 502.957 107.45 504.023 108.443C505.016 109.515 506.191 110.27 507.55 110.709C508.86 111.397 510.267 111.708 511.771 111.653C514.61 111.525 517.546 110.593 519.526 108.443C520.099 107.706 520.671 106.963 521.238 106.226C522.231 104.514 522.73 102.669 522.737 100.695C523.047 97.047 523.425 93.4047 523.888 89.7685C524.546 85.2917 525.435 80.8636 525.971 76.3625C526.586 71.2036 526.757 66.0081 526.72 60.8187V60.8126Z" fill="white"/>
<path d="M53.5712 74.9799C52.7123 72.9821 51.634 71.0939 50.3426 69.3459C48.509 66.873 46.6206 64.4671 44.257 62.4754C41.9543 60.5385 39.5176 58.6625 36.8068 57.3286C35.5519 56.7074 34.2544 56.1409 32.9447 55.6536C32.2015 55.3796 31.4035 55.2212 30.6054 55.1176C29.8744 54.9654 29.1252 54.8862 28.3576 54.8862C27.0296 54.7826 25.7016 54.7705 24.3797 54.9166C22.1806 55.1603 19.9389 55.4039 17.8311 56.1165C15.894 56.7744 13.8837 57.5235 12.1963 58.7112C10.5759 59.8502 8.91895 61.0867 7.59096 62.5789C6.26297 64.0712 4.95934 65.6974 3.97248 67.4516C3.28412 68.682 2.77851 70.0219 2.24853 71.3254C2.04141 71.8431 1.85257 72.3608 1.71855 72.9029C1.19466 75.0652 0.969269 77.3858 0.68905 79.5724C0.51239 80.9672 0.378373 82.3681 0.280905 83.7751C-0.16379 89.9634 -0.218615 96.1821 1.15811 102.273C1.44442 103.528 1.82211 104.752 2.30335 105.94C3.07091 107.834 3.82628 109.765 4.9167 111.507C5.96447 113.188 7.21327 114.777 8.5169 116.27C9.26618 117.129 10.0825 117.92 10.9597 118.639C12.4887 119.888 14.0664 121.161 15.7843 122.16C17.5204 123.171 19.4332 123.95 21.3095 124.645C21.9248 124.87 22.5583 125.059 23.204 125.193C24.794 125.522 26.4448 125.771 28.0652 125.82C30.1547 125.887 32.3477 125.577 34.3458 124.961C39.3653 123.408 43.5381 120.326 47.2297 116.672C47.8633 116.044 48.4603 115.387 49.0085 114.686C50.1111 113.297 51.2503 111.903 52.1823 110.386C53.6687 107.98 54.7956 105.282 55.6241 102.59C56.5257 99.66 56.9216 96.5171 57.1105 93.4717C57.3176 90.1644 56.946 86.8814 56.4221 83.6167C55.9348 80.5713 54.7895 77.806 53.5773 74.986L53.5712 74.9799ZM29.7952 102.973C29.3262 103.29 28.8449 103.576 28.3515 103.85C28.3393 103.85 28.3271 103.857 28.3211 103.863C28.1139 103.808 27.9068 103.741 27.6997 103.68C27.0479 103.339 26.4143 102.967 25.7991 102.559C25.2204 102.042 24.6721 101.487 24.1543 100.909C23.7462 100.287 23.3746 99.6417 23.0334 98.9839C22.6375 97.8267 22.3268 96.6511 22.0953 95.4512C21.876 93.0636 21.8638 90.6638 21.9552 88.264C22.0527 85.6511 22.2172 83.032 22.5157 80.4312C22.6253 79.7734 22.7593 79.1156 22.936 78.476C23.0578 78.2628 23.1796 78.0558 23.3076 77.8548C23.5208 77.6233 23.7401 77.404 23.9655 77.1909C23.9838 77.1787 23.9959 77.1726 24.0142 77.1604C24.4894 77.0142 24.9706 76.8802 25.4519 76.7706C25.8417 76.7523 26.2316 76.7462 26.6215 76.7462C27.4134 77.1787 28.1809 77.6416 28.918 78.1532C29.978 79.0668 30.9588 80.0536 31.8725 81.1073C32.6949 82.295 33.4259 83.5375 34.0594 84.8349C34.5041 86.0713 34.8514 87.3382 35.1072 88.6295C35.2595 90.4689 35.2595 92.3205 35.1072 94.16C34.8757 95.3477 34.559 96.511 34.163 97.65C33.7488 98.4723 33.2858 99.2641 32.7741 100.025C31.8603 101.079 30.8491 102.066 29.7892 102.98L29.7952 102.973Z" fill="white"/>
<path d="M226.277 72.4035C227.246 71.3437 227.898 70.1011 228.239 68.6759C228.878 65.868 228.738 62.719 227.136 60.2279C226.564 59.4909 225.991 58.7478 225.424 58.0108C224.054 56.6525 222.446 55.7145 220.588 55.1907C217.865 54.2649 215.166 53.2721 212.492 52.2062C212.681 51.7372 212.863 51.2743 213.04 50.7992C213.856 48.6309 214.472 46.4016 214.794 44.1054C215.056 42.2416 215.367 40.3595 215.361 38.4714C215.355 36.4066 215.05 34.3174 214.66 32.2952C214.301 30.4558 213.588 28.6103 212.601 27.0267C211.919 25.9242 211.06 24.767 210.061 23.896C209.068 23.0311 207.984 22.1601 206.833 21.5084C204.213 20.0222 201.277 18.8832 198.365 18.1219C192.779 16.66 186.9 16.386 181.15 16.2154C178.774 16.1484 176.179 17.1473 174.272 18.6578C174.035 18.4081 173.791 18.1645 173.535 17.9452C172.542 17.0803 171.458 16.2093 170.307 15.5576C167.687 14.0714 164.751 12.9325 161.839 12.1711C156.253 10.7093 150.375 10.4352 144.624 10.2647C141.864 10.1855 138.8 11.5437 136.869 13.4745C135.797 14.4673 135.042 15.6429 134.603 17.0011C133.915 18.3107 133.604 19.7177 133.659 21.2221C133.787 24.0604 134.719 26.9962 136.869 28.9757C139.05 30.9796 141.621 32.1003 144.624 32.1856C147.414 32.2648 150.198 32.3744 152.976 32.6668C154.292 32.8922 155.595 33.1845 156.874 33.5561C156.874 33.6657 156.868 33.7753 156.862 33.885C156.485 35.7914 155.9 37.6552 155.199 39.4703C151.885 46.8158 147.353 53.5828 142.863 60.2461C142.059 61.5069 141.627 62.8652 141.56 64.3209C141.231 65.7766 141.298 67.2384 141.755 68.6941C142.096 70.1194 142.748 71.3619 143.716 72.4217C144.49 73.6155 145.513 74.5535 146.793 75.2479C149.339 76.594 152.421 77.264 155.242 76.3503L157.861 75.2479C159.506 74.2733 160.822 72.9638 161.797 71.3132C163.088 69.3946 164.373 67.4638 165.628 65.5208C169.734 67.2445 173.864 68.883 178.08 70.3204C177.763 71.7639 177.83 73.2075 178.281 74.651C178.622 76.0762 179.274 77.3188 180.242 78.3786C181.016 79.5724 182.039 80.5104 183.319 81.2047C185.865 82.5508 188.947 83.2208 191.768 82.3072C192.639 81.9417 193.516 81.5702 194.387 81.2047C196.032 80.2302 197.348 78.9207 198.322 77.27C199.614 75.3514 200.899 73.4206 202.154 71.4777C206.309 73.2196 210.494 74.8824 214.764 76.332C216.22 76.7889 217.682 76.8559 219.138 76.527C220.6 76.46 221.958 76.0275 223.213 75.2235C224.492 74.5353 225.516 73.5912 226.289 72.3974L226.277 72.4035ZM176.508 44.8485C177.324 42.6801 177.94 40.4509 178.262 38.1546C178.281 38.0085 178.305 37.8623 178.323 37.7161C179.219 37.9658 180.151 38.112 181.138 38.1425C183.928 38.2216 186.712 38.3313 189.489 38.6236C190.805 38.849 192.109 39.1414 193.388 39.5129C193.388 39.6225 193.382 39.7322 193.376 39.8418C192.998 41.7482 192.413 43.612 191.713 45.4271C190.75 47.565 189.678 49.6602 188.533 51.7129C187.248 50.5373 185.755 49.709 184.056 49.2339C181.333 48.3081 178.634 47.3153 175.96 46.2494C176.149 45.7804 176.331 45.3175 176.508 44.8424V44.8485Z" fill="white"/>
<path d="M289.04 167.402C287.529 165.064 285.282 162.999 282.486 162.365C281.511 162.237 280.542 162.103 279.568 161.975C277.588 161.982 275.742 162.481 274.036 163.474C273.701 163.638 273.354 163.79 273.013 163.943C270.363 164.923 267.628 165.624 264.838 166.093C258.429 166.799 251.917 166.489 245.521 165.727C245.052 165.648 244.583 165.563 244.12 165.453C244.035 164.089 244.029 162.725 244.016 161.354C243.998 158.93 243.986 156.506 243.968 154.076C243.949 151.651 243.937 149.227 243.919 146.797C243.913 145.701 243.882 144.592 243.895 143.49C244.004 143.465 244.108 143.441 244.217 143.423C248.299 143.082 252.429 143.423 256.517 143.307C262.176 143.143 267.823 142.485 273.403 141.535C278.922 140.597 283.028 136.193 283.771 130.705C284.209 127.483 284.66 124.255 285.001 121.021C285.483 116.373 285.714 111.671 285.184 107.018C284.764 103.302 284.398 99.392 282.144 96.2369C280.493 93.9224 278.818 92.1683 276.339 90.6821C275.09 89.9329 273.665 89.4213 272.312 88.9036C270.527 88.2214 268.633 87.8072 266.775 87.4052C261.615 86.2784 256.383 85.4622 251.162 84.6948C246.843 84.0553 242.512 83.4583 238.18 82.9223C236.67 82.8675 235.263 83.1782 233.953 83.8664C232.594 84.3111 231.419 85.0663 230.426 86.1322C229.354 87.125 228.598 88.3006 228.16 89.6588C227.471 90.9684 227.161 92.3753 227.215 93.8859C227.343 96.7242 228.275 99.66 230.426 101.64C231.163 102.212 231.906 102.785 232.643 103.351C234.355 104.344 236.201 104.843 238.174 104.849C239.173 104.971 240.166 105.105 241.159 105.239C248.226 106.195 255.323 107.225 262.261 108.851C262.651 108.942 263.041 109.034 263.425 109.131C263.68 113.078 263.467 117.031 263.065 120.972C259.891 121.27 256.711 121.429 253.519 121.423C251.393 121.423 249.267 121.337 247.141 121.362C244.156 121.398 241.147 121.715 238.223 122.3C237.382 122.47 236.554 122.683 235.75 122.982C234.136 123.579 232.399 124.206 230.944 125.175C229.92 125.851 228.915 126.636 227.989 127.44C227.636 127.745 227.319 128.068 227.02 128.421C225.071 130.754 224.188 132.295 223.134 135.133C222.202 137.643 222.013 140.469 221.977 143.136C221.946 145.268 221.995 147.4 222.013 149.532C222.044 154.027 222.056 158.528 222.104 163.023C222.135 165.63 222.403 168.188 222.848 170.758C222.976 171.495 223.146 172.232 223.39 172.939C223.95 174.577 224.578 176.271 225.534 177.732C227.362 180.522 229.823 183.135 232.887 184.572C235.323 185.718 237.638 186.57 240.276 186.96C244.961 187.648 249.688 188.178 254.421 188.355C259.757 188.556 265.008 188.142 270.29 187.307C275.474 186.485 280.414 184.731 285.117 182.404C286.396 181.716 287.42 180.772 288.193 179.578C289.162 178.518 289.814 177.276 290.155 175.85C290.612 174.395 290.679 172.933 290.35 171.477C290.283 170.015 289.85 168.657 289.046 167.402H289.04Z" fill="white"/>
<path d="M483.451 110.654C481.94 108.315 479.693 106.25 476.896 105.617C475.922 105.489 474.953 105.355 473.978 105.227C471.999 105.233 470.153 105.733 468.447 106.725C468.112 106.89 467.765 107.042 467.424 107.194C464.774 108.175 462.039 108.875 459.249 109.344C452.84 110.051 446.328 109.74 439.932 108.979C439.463 108.9 438.994 108.815 438.531 108.705C438.446 107.341 438.439 105.976 438.427 104.606C438.409 102.182 438.397 99.7575 438.379 97.3272C438.36 94.897 438.348 92.4789 438.33 90.0486C438.324 88.9523 438.293 87.8438 438.305 86.7413C438.415 86.7169 438.519 86.6926 438.628 86.6743C442.71 86.3332 446.84 86.6743 450.927 86.5586C456.587 86.3941 462.234 85.7363 467.814 84.7861C473.333 83.8482 477.439 79.4445 478.182 73.9566C478.62 70.7346 479.071 67.5064 479.412 64.2722C479.894 59.6249 480.125 54.9227 479.595 50.2693C479.175 46.5539 478.809 42.6436 476.555 39.4885C474.904 37.174 473.229 35.4199 470.75 33.9337C469.501 33.1845 468.076 32.6729 466.723 32.1552C464.938 31.473 463.044 31.0588 461.186 30.6568C456.026 29.53 450.793 28.7138 445.573 27.9464C441.254 27.3068 436.923 26.7099 432.591 26.1739C431.081 26.1191 429.673 26.4298 428.364 27.118C427.005 27.5627 425.83 28.3179 424.837 29.3838C423.764 30.3766 423.009 31.5522 422.571 32.9104C421.882 34.22 421.572 35.6269 421.626 37.1375C421.754 39.9758 422.686 42.9116 424.837 44.8911C425.574 45.4637 426.317 46.0362 427.054 46.6026C428.766 47.5955 430.612 48.0949 432.585 48.101C433.584 48.2228 434.577 48.3568 435.57 48.4908C442.637 49.4471 449.733 50.4764 456.672 52.1027C457.062 52.194 457.452 52.2854 457.835 52.3829C458.091 56.3297 457.878 60.2827 457.476 64.2235C454.302 64.5219 451.122 64.6803 447.93 64.6742C445.804 64.6742 443.678 64.5889 441.552 64.6133C438.567 64.6498 435.558 64.9665 432.634 65.5513C431.793 65.7218 430.965 65.935 430.161 66.2334C428.547 66.8303 426.81 67.4577 425.354 68.4261C424.331 69.1022 423.326 69.8879 422.4 70.6919C422.047 70.9965 421.73 71.3193 421.431 71.6726C419.482 74.0054 418.599 75.5463 417.545 78.3847C416.613 80.8941 416.424 83.7203 416.387 86.388C416.357 88.5198 416.406 90.6516 416.424 92.7834C416.454 97.2785 416.467 101.78 416.515 106.275C416.546 108.882 416.814 111.44 417.259 114.01C417.386 114.747 417.557 115.484 417.801 116.191C418.361 117.829 418.989 119.522 419.945 120.978C421.773 123.768 424.234 126.381 427.298 127.818C429.734 128.963 432.049 129.816 434.687 130.206C439.371 130.894 444.099 131.424 448.832 131.6C454.168 131.801 459.419 131.387 464.701 130.553C469.885 129.73 474.825 127.976 479.528 125.65C480.807 124.961 481.831 124.017 482.604 122.823C483.573 121.764 484.225 120.521 484.566 119.096C485.023 117.64 485.09 116.178 484.761 114.723C484.694 113.261 484.261 111.903 483.457 110.648L483.451 110.654Z" fill="white"/>
<path d="M321.893 69.2179C322.313 73.9993 322.606 78.7867 322.77 83.5802C322.934 88.4772 322.965 93.3742 322.861 98.2713C322.837 99.3676 322.746 100.476 322.807 101.566C322.947 104.082 323.312 105.739 324.482 107.956C325.493 109.874 327.205 111.604 329.075 112.707C331.646 114.223 334.819 114.844 337.701 115.508C348.958 118.103 360.673 119.248 372.216 118.657C375.116 118.511 377.882 117.537 379.971 115.447C381.043 114.455 381.799 113.279 382.237 111.921C382.926 110.611 383.236 109.204 383.182 107.694C383.054 104.855 382.122 101.92 379.971 99.9402C377.888 98.0276 375.128 96.578 372.216 96.7303C365.576 97.0714 358.918 96.8278 352.315 96.0238C350.085 95.6888 347.868 95.2989 345.663 94.836C345.382 94.7751 345.102 94.7142 344.822 94.6533C344.834 93.2585 344.846 91.8698 344.834 90.475C344.804 86.5281 344.682 82.5813 344.475 78.6344C344.475 78.5309 344.463 78.4212 344.457 78.3177C352.29 78.6344 360.124 78.9572 367.964 79.2739C369.475 79.3288 370.882 79.0181 372.186 78.3298C373.544 77.8852 374.72 77.13 375.713 76.0641C376.785 75.0713 377.541 73.8957 377.979 72.5375C378.668 71.2279 378.978 69.8209 378.923 68.3165C378.795 65.4782 377.863 62.5424 375.713 60.5629C373.52 58.5468 370.968 57.4748 367.958 57.353C359.424 57.0058 350.883 56.6586 342.349 56.3114C342.3 55.9399 342.257 55.5684 342.209 55.1968C341.74 51.4753 341.374 47.7112 341.679 43.9653C341.837 43.1491 342.038 42.3451 342.27 41.5533C342.818 41.5899 343.36 41.6325 343.908 41.663C346.156 41.797 348.41 41.8944 350.658 41.9614C355.111 42.0893 359.57 42.0832 364.023 41.9492C366.886 41.864 369.731 40.7859 371.778 38.7394C372.85 37.7466 373.605 36.571 374.044 35.2128C374.732 33.9032 375.043 32.4962 374.988 30.9918C374.86 28.1535 373.928 25.2177 371.778 23.2382C369.67 21.3013 366.965 19.9369 364.023 20.0283C359.119 20.1745 354.209 20.1684 349.305 19.9978C346.802 19.9126 344.304 19.7786 341.807 19.608C340.741 19.5349 339.674 19.4253 338.608 19.3705C337.226 19.2974 335.776 19.4984 334.448 19.809C332.06 20.3572 330.348 21.5693 328.508 23.0859C327.126 24.2249 326.047 25.8572 325.018 27.2703C324.39 28.1352 323.848 29.061 323.385 30.0234C322.155 32.5937 321.07 35.2615 320.534 38.0694C319.968 41.0295 319.608 44.081 319.627 47.1021C319.645 49.6115 319.895 52.1149 320.199 54.606C320.796 59.4787 321.442 64.3392 321.875 69.2301L321.893 69.2179Z" fill="white"/>
<path d="M389.535 143.654C388.798 143.082 388.055 142.509 387.318 141.943C385.606 140.95 383.76 140.45 381.786 140.444C367.361 139.488 352.918 138.715 338.474 138.148C334.43 137.99 330.379 137.789 326.334 137.898C323.477 137.978 320.62 139.068 318.579 141.108C317.507 142.101 316.751 143.277 316.313 144.635C315.624 145.944 315.314 147.351 315.369 148.862C315.497 151.7 316.429 154.636 318.579 156.615C320.693 158.552 323.391 159.905 326.334 159.825C333.54 159.63 340.789 160.154 347.984 160.483C355.178 160.812 362.372 161.19 369.567 161.61C373.642 161.848 377.711 162.103 381.786 162.377C383.297 162.432 384.704 162.122 386.008 161.433C387.367 160.989 388.542 160.233 389.535 159.168C390.607 158.175 391.363 156.999 391.801 155.641C392.49 154.331 392.8 152.924 392.745 151.414C392.618 148.576 391.686 145.64 389.535 143.66V143.654Z" fill="white"/>
<path d="M527.36 13.236C526.117 12.5112 524.661 12.0909 523.236 11.9264C522.919 11.8899 522.609 11.8716 522.292 11.8838C521.792 11.9021 521.731 11.9813 521.542 11.5123C521.195 10.6595 520.909 9.78855 520.525 8.94802C519.745 7.23649 518.649 5.67114 517.004 4.7027C516.572 4.44688 516.017 4.61133 515.755 5.0316C514.519 7.01113 513.477 9.0881 512.575 11.2382C511.308 11.3965 510.06 11.6645 508.853 12.0848C507.867 12.432 506.319 12.8766 505.735 13.8146C504.845 15.2338 506.173 16.324 507.087 17.262C507.848 18.0477 508.579 18.8761 509.341 19.6618C509.694 20.0273 509.84 20.1247 509.871 20.5876C509.907 21.0932 509.883 21.5987 509.877 22.0982C509.877 23.4016 509.779 24.7111 509.828 26.0146C509.859 26.8307 509.956 28.0245 510.912 28.2986C511.534 28.4753 512.253 28.0915 512.789 27.8357C513.733 27.385 514.634 26.8246 515.475 26.2034C515.938 25.8562 516.413 25.4847 516.827 25.0583C517.187 25.4298 517.565 25.7709 517.979 26.0937C518.588 26.5749 519.155 27.117 519.788 27.5616C520.982 28.39 523.455 29.2488 524.022 27.2327C524.217 26.5506 523.949 25.6491 523.845 24.9608C523.699 23.9863 523.559 23.0057 523.413 22.0312C523.382 21.8302 523.346 21.6292 523.321 21.4221C523.273 21.0018 523.254 20.6851 523.534 20.344C523.87 19.942 524.332 19.6253 524.753 19.3329C525.514 18.7969 526.312 18.3157 527.074 17.7797C527.671 17.3595 528.53 16.9392 528.932 16.3179C529.76 15.0389 528.359 13.8207 527.348 13.2299L527.36 13.236Z" fill="#AE932E"/>
</svg>
